<?xml version="1.0" standalone="no"?><!DOCTYPE svg PUBLIC "-//W3C//DTD SVG 1.1//EN" "http://www.w3.org/Graphics/SVG/1.1/DTD/svg11.dtd"><svg t="1532263554847" class="icon" style="" viewBox="0 0 1024 1024" version="1.1" xmlns="http://www.w3.org/2000/svg" p-id="10675" xmlns:xlink="http://www.w3.org/1999/xlink" width="128" height="128"><defs><style type="text/css"></style></defs><path d="M861.582222 238.364444h-167.253333V116.906667c0-25.031111-20.48-45.511111-45.511111-45.511111h-273.635556c-25.031111 0-45.511111 20.48-45.511111 45.511111v121.457777H162.417778C112.071111 238.364444 71.111111 279.04 71.111111 329.671111v15.075556h881.777778v-15.075556c0-50.631111-40.96-91.306667-91.306667-91.306667z m-440.888889 0V162.417778H603.022222v75.946666h-182.328889zM71.111111 861.582222c0 50.346667 40.675556 91.306667 91.306667 91.306667h699.164444c50.346667 0 91.306667-40.675556 91.306667-91.306667V409.031111H71.111111v452.551111z m310.897778-216.746666h96.711111v-90.737778c0-25.031111 12.231111-41.528889 33.28-41.528889 21.048889 0 33.848889 16.497778 33.848889 41.528889v90.737778h97.28c25.031111 0 45.511111 8.817778 45.511111 34.133333s-20.48 31.857778-45.511111 31.857778h-97.28v110.648889c0 25.031111-14.222222 34.417778-33.848889 34.417777-19.342222 0-33.28-9.386667-33.28-34.417777v-110.648889h-96.711111c-25.031111 0-45.511111-6.826667-45.511111-31.857778s20.48-34.133333 45.511111-34.133333z" p-id="10676"></path></svg>