<?xml version="1.0" standalone="no"?><!DOCTYPE svg PUBLIC "-//W3C//DTD SVG 1.1//EN" "http://www.w3.org/Graphics/SVG/1.1/DTD/svg11.dtd"><svg t="1532263566162" class="icon" style="" viewBox="0 0 1170 1024" version="1.1" xmlns="http://www.w3.org/2000/svg" p-id="10911" xmlns:xlink="http://www.w3.org/1999/xlink" width="146.25" height="128"><defs><style type="text/css"></style></defs><path d="M0 409.088V283.209143c0-43.958857 33.938286-79.579429 75.849143-79.579429H196.754286v-59.245714C196.754286 64.658286 258.340571 0 334.336 0h492.397714c75.995429 0 137.581714 64.658286 137.581715 144.384v59.245714h130.121142c41.837714 0 75.849143 35.620571 75.849143 79.579429v125.878857H0z m909.165714-260.900571c0-48.420571-37.449143-87.698286-83.602285-87.698286H337.846857c-46.153143 0-83.602286 39.277714-83.602286 87.698286v55.442285h654.921143v-55.442285zM1170.285714 944.347429c0 44.032-34.011429 79.652571-75.849143 79.652571H75.849143C33.938286 1024 0 988.379429 0 944.347429V456.704h1170.285714v487.643429z m-437.394285-246.857143h-109.714286V586.825143h-73.142857v110.665143h-109.714286v76.8h109.714286v119.588571h73.142857v-119.588571h109.714286v-76.8z" p-id="10912"></path></svg>