<?xml version="1.0" standalone="no"?><!DOCTYPE svg PUBLIC "-//W3C//DTD SVG 1.1//EN" "http://www.w3.org/Graphics/SVG/1.1/DTD/svg11.dtd"><svg t="1532263303594" class="icon" style="" viewBox="0 0 1024 1024" version="1.1" xmlns="http://www.w3.org/2000/svg" p-id="8778" xmlns:xlink="http://www.w3.org/1999/xlink" width="128" height="128"><defs><style type="text/css"></style></defs><path d="M515.781628 328.34212l0 96.938819 86.571704 0L515.781628 328.34212zM614.882694 898.001331c6.27389-6.274914 10.251481-14.82566 10.251481-24.51944l0-396.306025L510.076696 477.175867l0 0c-12.530384 0-23.920806-5.134951-32.464389-13.687744l0 0c-7.973602-8.552793-13.109576-19.962657-13.109576-32.493042L464.502731 315.793316 228.683864 315.793316l0 0c-9.6815 0-18.225083 3.997034-24.490787 10.252505l0 0c-6.264681 6.294356-9.691733 14.826684-9.691733 24.51944l0 522.916631c0 9.69378 3.427052 18.244526 9.691733 24.51944 6.265704 6.275937 14.808264 10.270924 24.490787 10.270924l0 0 361.718275 0 0 0C600.07443 908.272255 608.627223 904.277268 614.882694 898.001331L614.882694 898.001331zM167.732677 289.555745c15.947204-15.387455 37.59934-25.079188 60.951187-25.079188l301.326836 0 2.858094 0 1.698688 1.719154 140.706649 161.364131 1.137916 1.13894 0 2.296299 0 442.48681c0 23.959691-9.691733 45.62206-25.058722 61.029982l0 0c-15.387455 15.385409-37.030381 25.078165-60.951187 25.078165l-361.718275 0c-23.350824 0-45.00296-9.692756-60.951187-25.078165-15.377222-15.407921-25.059745-37.07029-25.059745-61.029982L142.672932 350.565261C142.672932 326.623989 152.355455 305.540811 167.732677 289.555745L167.732677 289.555745zM716.859249 127.033231l0 96.957239 86.570681 0L716.859249 127.033231zM429.761486 63.166645l301.326836 0 2.858094 0 1.698688 2.278903 140.706649 160.823825 1.13894 1.699712 0 1.718131 0 442.507276c0 23.958668-9.691733 45.620014-25.060769 61.007469-15.966647 15.966647-37.030381 25.097608-60.951187 25.097608l0 0-60.391439 0.560772 0 0c-6.833639 0-13.668301-3.417843-18.226107-7.974625l0 0c-4.555759-4.555759-7.393387-10.829649-7.393387-18.243503l0 0c0-6.854105 2.836605-13.688767 7.393387-18.24555l0 0c4.556783-4.575202 11.392468-7.41283 18.226107-7.41283l0 0 60.391439 0 0 0c9.67229 0 18.226107-3.996011 24.480554-10.270924 6.274914-6.275937 10.253528-14.827707 10.253528-24.518417L826.21282 275.886421 711.16455 275.886421l0 0c-12.549827 0-23.941272-5.134951-32.473599-13.707187-8.552793-7.973602-13.668301-19.944238-13.668301-32.493042L665.022651 115.062596 429.761486 115.062596l0 0c-9.6815 0-18.226107 3.437286-24.490787 9.691733-6.274914 6.294356-10.260691 14.827707-10.260691 24.51944l0 60.468187c0 7.413853-2.847861 13.669324-7.404644 18.226107-4.556783 4.575202-10.821463 7.413853-18.226107 7.413853l0 0c-6.834662 0-13.668301-2.838651-18.225083-7.413853-4.555759-4.556783-7.40362-11.390421-7.40362-18.226107l0-60.468187c0-23.361057 9.682523-45.042869 25.058722-61.009516l0 0C384.757502 72.858378 405.84068 63.166645 429.761486 63.166645L429.761486 63.166645z" p-id="8779"></path></svg>