<?xml version="1.0" standalone="no"?><!DOCTYPE svg PUBLIC "-//W3C//DTD SVG 1.1//EN" "http://www.w3.org/Graphics/SVG/1.1/DTD/svg11.dtd"><svg t="1532263681062" class="icon" style="" viewBox="0 0 1024 1024" version="1.1" xmlns="http://www.w3.org/2000/svg" p-id="13727" xmlns:xlink="http://www.w3.org/1999/xlink" width="128" height="128"><defs><style type="text/css"></style></defs><path d="M509.677095 56.145741c0 0-114.193809 6.348592-146.102542 118.863155 0 0-16.795525 53.740972 8.394181 125.95262 0 0 45.342698 129.311111 137.708362 144.42432 0 0 102.43909-18.47477 142.742005-136.029116 0 0 25.195845-75.570139 6.718005-137.705292C659.138128 171.651428 625.550149 56.145741 509.677095 56.145741z" p-id="13728"></path><path d="M327.940984 442.984137c0 0-103.058191 13.433964-145.573493 107.478873L182.367491 861.135702c0 0 21.299095 91.193978 93.511767 98.502431 72.212672 7.294127 490.367307 0 490.367307 0s70.53752-21.246907 73.893964-86.736457c3.358491-65.502853 0-305.756729 0-305.756729s-4.281513-104.417141-164.210969-124.570133c0 0-17.300015 1.223874-11.741415 17.899672 6.243191 11.438517 16.746406 27.396977 16.746406 27.396977s6.528694 5.604648 3.252067 23.690562c-5.446036 19.10615-14.093996 26.384927-14.093996 26.384927s-30.223349 36.476773-33.153074 99.835799c0 0-2.084475 82.553181 1.541099 109.302405 0 0 57.32152 4.514827 63.955614 46.880727 0 0 5.526877 68.113307-55.423287 72.204485-90.523713-3.047406-68.639287-93.000114-35.326577-111.255897l10.139941-4.613064c0 0-0.233314-98.382705 1.019213-123.072013 1.043772-31.608905 24.167422-83.48439 32.564673-95.244224 0 0 25.193799-26.868951 3.360538-50.379411-21.832238-23.51046 5.036713-41.98523-18.47477-38.623669l-15.117302-0.399089c0 0-50.033533 269.089621-113.181759 270.767843-63.147202 1.679245-96.732112-264.443811-96.732112-270.767843 0-6.319939-11.247158-17.383926-38.627762 0 0 0-45.809325 8.552793-18.548448 103.976096 0 0 19.063171 65.313541 47.095621 108.018156 0 0 70.882374 71.218018 70.882374 90.673116 0 0 16.425088 41.251519 10.295484 99.673094 0 0-6.214539 24.251334-13.691837 32.885991 0 0-39.933501 53.68162-70.840418 28.667923 0 0-34.095539-31.954783 5.276167-58.350966 0 0 24.702612-13.44522 48.461735-3.781116 0 0 16.795525-18.467607 8.398274-62.132082 0 0 2.979868-62.399165-74.30738-95.765087 0 0-42.61661-31.036877-90.327238 96.344279 0 0-9.907651 57.334823 1.848091 74.123184 0 0 60.85909-24.674982 62.538335 32.420387 0 0-12.969383 25.013697-34.102702 25.549909 0 0-30.226418 8.380878-41.98216-38.627762 0 0-9.089006-20.005636-10.390651-33.492812-2.927679-30.318516 4.02057-65.983807 4.02057-65.983807s22.562878-78.722946 70.183456-117.167536c0 0 29.912263-10.214642 6.642281-52.284807C358.089631 607.332229 320.636624 540.27702 327.940984 442.984137z" p-id="13729"></path><path d="M480.169037 471.471958c0 0-35.33681 13.367449-6.528694 80.415494 0 0 17.197684 56.551994 43.202964 115.079992 0 0 23.317055-62.612013 32.593326-107.657952 5.398964-26.213012 27.54638-73.478502-5.706979-87.836511L480.169037 471.472981z" p-id="13730"></path></svg>