<?xml version="1.0" standalone="no"?><!DOCTYPE svg PUBLIC "-//W3C//DTD SVG 1.1//EN" "http://www.w3.org/Graphics/SVG/1.1/DTD/svg11.dtd"><svg t="1532263693318" class="icon" style="" viewBox="0 0 1069 1024" version="1.1" xmlns="http://www.w3.org/2000/svg" p-id="13847" xmlns:xlink="http://www.w3.org/1999/xlink" width="133.625" height="128"><defs><style type="text/css"></style></defs><path d="M549.324879 313.997577h-29.218031v37.153528h-37.153528v29.218031h37.153528v37.153528h29.218031v-37.153528h37.153528v-29.218031h-37.153528V313.997577z" p-id="13848"></path><path d="M534.737253 0C239.412693 0 0.000235 239.412458 0.000235 534.737018a533.710323 533.710323 0 0 0 203.307015 419.640222c19.592764-139.908593 94.113715-233.14534 186.665998-279.795797v247.176839a45.837657 45.837657 0 1 0 25.881271 0v-241.701132l120.059156 184.976229 111.866984-185.254292v143.929816A96.423779 96.423779 0 0 0 564.682526 919.084597v41.880603a54.864018 54.864018 0 0 0 41.581151 53.238418v9.796382h25.881271v-41.966161h-25.881271v4.427622a28.918578 28.918578 0 0 1-15.721269-25.496261v-41.880603a70.178886 70.178886 0 1 1 140.336383 0v41.880603a28.961357 28.961357 0 0 1-15.63571 25.496261v-4.427622h-25.881272v41.966161h25.881272v-9.796382a54.885408 54.885408 0 0 0 41.516982-53.238418v-41.880603a96.423779 96.423779 0 0 0-82.991185-95.482642v-155.116514c97.450474 44.404562 175.992647 139.288298 193.767306 284.886494A533.753102 533.753102 0 0 0 1069.474271 534.737018C1069.474271 239.412458 830.061814 0 534.737253 0z m-111.952542 965.756444a19.977775 19.977775 0 1 1-19.977775-20.234449 20.127501 20.127501 0 0 1 19.977775 20.234449zM534.737253 621.98471a181.040565 181.040565 0 0 1-179.222459-156.014873h358.444918A181.040565 181.040565 0 0 1 534.737253 621.98471z m181.190291-181.168902H353.546962v-77.643815a103.482308 103.482308 0 0 1 103.525087-103.525087h155.28763a103.482308 103.482308 0 0 1 103.546476 103.525087z" p-id="13849"></path></svg>