<?xml version="1.0" standalone="no"?><!DOCTYPE svg PUBLIC "-//W3C//DTD SVG 1.1//EN" "http://www.w3.org/Graphics/SVG/1.1/DTD/svg11.dtd"><svg t="1532263572722" class="icon" style="" viewBox="0 0 1024 1024" version="1.1" xmlns="http://www.w3.org/2000/svg" p-id="11029" xmlns:xlink="http://www.w3.org/1999/xlink" width="128" height="128"><defs><style type="text/css"></style></defs><path d="M486.232789 51.285193m-51.285193 0a10.083 10.083 0 1 0 102.570386 0 10.083 10.083 0 1 0-102.570386 0Z" p-id="11030"></path><path d="M757.953267 51.285193m-51.285193 0a10.083 10.083 0 1 0 102.570386 0 10.083 10.083 0 1 0-102.570386 0Z" p-id="11031"></path><path d="M910.755982 97.931678c-26.05713-45.130766-72.72396-72.072913-124.838221-72.072913l0 50.86303c33.727275 0 63.924656 17.435847 80.790837 46.641398 16.866181 29.210638 16.866181 64.082331 0.005086 93.292969l-163.382225 282.981553c-16.861094 29.205552-47.063562 46.641398-80.790837 46.646485-33.727275 0-63.929742-17.435847-80.795923-46.646485L378.367562 216.651076c-16.861094-29.205552-16.861094-64.082331 0-93.287883s47.068648-46.646485 80.795923-46.646485l0-50.86303c-52.11426 0-98.786177 26.942147-124.843307 72.078s-26.05713 99.020147 0 144.150913l163.377138 282.981553c21.728686 37.633556 57.81092 62.55644 99.411792 69.819681l0 136.475682c0 133.317088-78.700366 241.777413-175.436763 241.777413-96.736397 0-175.431676-108.460325-175.431676-241.777413l0-162.497208C304.17366 557.051903 347.905693 505.700588 347.905693 444.319084c0-70.084169-57.017456-127.101625-127.101625-127.101625s-127.101625 57.017456-127.101625 127.101625c0 61.376418 43.732033 112.727733 101.67011 124.543215l0 162.497208c0 161.362962 101.517521 292.640442 226.299793 292.640442 124.777185 0 226.294706-131.27748 226.294706-292.640442l0-136.475682c41.595786-7.263241 77.683106-32.186125 99.406706-69.819681l163.382225-282.981553C936.818198 196.951824 936.818198 143.062444 910.755982 97.931678z" p-id="11032"></path></svg>