<?xml version="1.0" standalone="no"?><!DOCTYPE svg PUBLIC "-//W3C//DTD SVG 1.1//EN" "http://www.w3.org/Graphics/SVG/1.1/DTD/svg11.dtd"><svg t="1532263768149" class="icon" style="" viewBox="0 0 1090 1024" version="1.1" xmlns="http://www.w3.org/2000/svg" p-id="15734" xmlns:xlink="http://www.w3.org/1999/xlink" width="136.25" height="128"><defs><style type="text/css"></style></defs><path d="M822.948419 778.648918c-68.153078 0-122.675541 54.522463-122.67554 122.675541s54.522463 122.675541 122.67554 122.675541 122.675541-54.522463 122.675541-122.675541-54.522463-122.675541-122.675541-122.675541z m0 211.274543c-47.707155 0-88.599002-39.18802-88.599001-88.599002 0-47.707155 39.18802-88.599002 88.599001-88.599001 47.707155 0 88.599002 39.18802 88.599002 88.599001-1.703827 49.410982-40.891847 88.599002-88.599002 88.599002z" p-id="15735"></path><path d="M822.948419 901.324459m-52.818635 0a52.818636 52.818636 0 1 0 105.637271 0 52.818636 52.818636 0 1 0-105.637271 0Z" p-id="15736"></path><path d="M606.562396 645.750416c-1.703827-10.222962-8.519135-18.742097-15.334443-25.557404-10.222962-8.519135-22.14975-11.926789-35.780366-8.519135-28.965058 6.815308-57.930116 8.519135-85.191347 8.519135-81.783694 0-110.748752-23.853577-115.860233-27.261232v1.703827l-1.703827-1.703827c-3.407654-6.815308-8.519135-13.630616-17.03827-17.038269 0 0-28.965058-27.261231-28.965058-110.748752 0-27.261231 3.407654-56.22629 8.519135-85.191348 3.407654-13.630616-1.703827-27.261231-10.222962-37.484193-6.815308-6.815308-13.630616-11.926789-23.853577-15.334443-8.519135-1.703827-18.742097 0-27.261232 3.407654-11.926789 5.111481-22.14975 17.03827-25.557404 30.668885-6.815308 35.780366-11.926789 69.856905-11.926789 102.229618 0 71.560732 17.03827 119.267887 35.780366 146.529118l-44.2995 44.299501c-10.222962 10.222962-15.334443 25.557404-11.926789 40.891847 1.703827 8.519135 5.111481 15.334443 11.926789 22.14975 8.519135 8.519135 18.742097 11.926789 28.965058 11.926789h3.407654c11.926789 0 22.14975-5.111481 30.668885-13.630616l46.003328-46.003328c28.965058 18.742097 74.968386 37.484193 149.936772 37.484193 32.372712 0 68.153078-3.407654 103.933444-11.926788 15.334443-3.407654 27.261231-13.630616 32.372712-27.261232 3.407654-5.111481 5.111481-13.630616 3.407654-22.14975z" p-id="15737"></path><path d="M693.457571 778.648918c-44.299501 1.703827-74.968386 35.780366-112.452579 74.968386-49.410982 54.522463-107.341098 117.56406-209.570716 117.56406-85.191348 0-143.121464-30.668885-163.567387-86.895174-15.334443-42.595674-6.815308-95.414309 20.445923-139.713811H223.201331c-10.222962 0-20.445923-5.111481-28.965058-11.926788-5.111481-5.111481-8.519135-11.926789-10.222962-17.03827-37.484193 57.930116-47.707155 127.787022-25.557404 187.420965 28.965058 76.672213 105.637271 120.971714 212.978369 120.971714 126.083195 0 195.9401-76.672213 248.758736-134.602329 28.965058-30.668885 52.818636-57.930116 73.264559-57.930117 11.926789 0 27.261231 8.519135 44.299501 25.557404l37.484193-37.484193c-27.261231-27.261231-54.522463-40.891847-81.783694-40.891847zM606.562396 645.750416c-1.703827-10.222962-8.519135-18.742097-15.334443-25.557404-10.222962-8.519135-22.14975-11.926789-35.780366-8.519135-28.965058 6.815308-57.930116 8.519135-85.191347 8.519135-81.783694 0-110.748752-23.853577-115.860233-27.261232v1.703827l-1.703827-1.703827c-3.407654-6.815308-8.519135-13.630616-17.03827-17.038269 0 0-28.965058-27.261231-28.965058-110.748752 0-27.261231 3.407654-56.22629 8.519135-85.191348 3.407654-13.630616-1.703827-27.261231-10.222962-37.484193-6.815308-6.815308-13.630616-11.926789-23.853577-15.334443-8.519135-1.703827-18.742097 0-27.261232 3.407654s-17.03827 10.222962-20.445923 20.445924c1.703827 0 1.703827-1.703827 3.407654-1.703827 8.519135-3.407654 17.03827-5.111481 27.261231-3.407654 10.222962 1.703827 18.742097 6.815308 23.853577 15.334442 8.519135 10.222962 11.926789 23.853577 10.222962 37.484193-6.815308 28.965058-8.519135 57.930116-8.519135 85.191348 0 83.487521 28.965058 110.748752 28.965059 110.748752 6.815308 3.407654 11.926789 10.222962 17.038269 17.03827 5.111481 3.407654 34.076539 27.261231 115.860233 27.261231 27.261231 0 56.22629-3.407654 85.191348-8.519135 13.630616-3.407654 25.557404 1.703827 35.780366 8.519135 8.519135 6.815308 13.630616 15.334443 15.334443 25.557404 1.703827 8.519135 1.703827 17.03827-1.703827 25.557405 0 1.703827-1.703827 3.407654-3.407654 5.111481 10.222962-5.111481 17.03827-13.630616 20.445923-22.149751 3.407654-10.222962 5.111481-18.742097 3.407654-27.261231z" p-id="15738"></path><path d="M337.357737 611.673877c-1.703827-1.703827-1.703827-1.703827 0 0l-1.703827-1.703827c0 1.703827 1.703827 1.703827 1.703827 1.703827z" p-id="15739"></path><path d="M879.174709 270.908486c-11.926789-23.853577-8.519135-40.891847-10.222962-56.22629 0-3.407654 0-6.815308-1.703827-10.222961v-1.703827c0-3.407654-1.703827-5.111481-1.703827-8.519135 0 0 0-1.703827-1.703827-1.703827v-1.703827c-8.519135-17.03827-27.261231-30.668885-47.707155-30.668885-28.965058 0-52.818636 23.853577-52.818635 52.818635 0 10.222962 3.407654 18.742097 6.815308 25.557405 0 0 0 1.703827 1.703827 1.703827 0 1.703827 1.703827 1.703827 1.703827 3.407654 1.703827 1.703827 3.407654 3.407654 5.11148 6.815307 15.334443 17.03827 44.299501 27.261231 51.114809 40.891847 25.557404 49.410982 46.003328 100.52579 46.003328 146.529118-1.703827 28.965058-129.490849 138.009983-286.242929 180.605658 8.519135 6.815308 13.630616 15.334443 15.334443 25.557404 1.703827 8.519135 1.703827 17.03827-1.703827 25.557404 170.382696-46.003328 325.430948-163.567388 325.430949-231.720466 1.703827-54.522463-22.14975-110.748752-49.410982-166.975041zM650.861897 138.009983c8.519135 3.407654 17.03827 6.815308 25.557404 6.815308 28.965058 0 52.818636-23.853577 52.818636-52.818635 0-28.965058-23.853577-52.818636-52.818636-52.818636-22.14975 0-42.595674 3.407654-59.633943-3.407654C574.189684 17.03827 531.59401 3.407654 488.998336 3.407654c-66.449251 0-185.717138 156.75208-231.720466 327.134775 8.519135-3.407654 17.03827-5.111481 27.261231-3.407654 10.222962 1.703827 18.742097 6.815308 23.853578 15.334443C350.988353 185.717138 460.033278 57.930116 488.998336 56.22629c37.484193 0 76.672213 13.630616 117.56406 32.372712 15.334443 10.222962 22.14975 37.484193 44.299501 49.410981z" p-id="15740"></path></svg>