<?xml version="1.0" standalone="no"?><!DOCTYPE svg PUBLIC "-//W3C//DTD SVG 1.1//EN" "http://www.w3.org/Graphics/SVG/1.1/DTD/svg11.dtd"><svg t="1532263745368" class="icon" style="" viewBox="0 0 1185 1024" version="1.1" xmlns="http://www.w3.org/2000/svg" p-id="14525" xmlns:xlink="http://www.w3.org/1999/xlink" width="148.125" height="128"><defs><style type="text/css"></style></defs><path d="M979.374875 847.249232c-53.386166-129.66751-162.582694-221.733058-291.873106-250.76953 67.985209-48.483905 116.900081-145.23623 128.428476-263.105989a278.028258 278.028258 0 0 0-57.103265-21.117434c-159.458176-33.507765-302.054726-8.296135-342.350238 0.323226-15.784205 3.663228-41.588416 10.343233-57.641976 15.622591 10.828072 123.903312 62.813592 225.234673 135.05461 272.7489-120.347826 33.184539-222.217897 122.556537-273.233739 246.298236l-1.239033 3.77097c-4.902261 20.309369-13.41388 71.540695 14.060333 109.088786 10.828072 14.814526 31.783893 33.076797 70.032307 35.716476 35.285508 2.424195 134.569771 4.84839 296.559883 7.272586h1.400647c160.481725-2.424195 259.765987-4.84839 295.105366-7.272586 38.248414-2.69355 59.150364-20.90195 70.032307-35.716476 27.474213-37.548091 18.908723-88.779417 14.006462-109.034915l-1.239034-3.824841z m8.350006-555.410064l33.507765 15.083881c11.851621-69.924565 7.380328-115.661048 7.003231-119.054921-5.387101-105.58717-107.418784-143.404616-160.589466-148.683975L810.866371 37.40641s49.184228 127.458798 58.072944 231.968549c14.060332 0.808065 81.237476 5.818069 118.785566 22.51808z m192.91207 547.70651c-42.019384-131.82235-134.569771-181.545288-195.821104-214.514343-9.804523-5.225488-18.854852-10.073878-26.881632-14.922268a403.817055 403.817055 0 0 0-32.484216-16.538399c-5.602585-2.69355-12.605815-5.979682-17.561948-8.727103 60.443268-89.802966 91.203612-175.296251 106.61072-243.766299l-33.184539-14.006461c-22.625822-11.420653-79.567475-20.147756-111.028142-22.302596a255.995017 255.995017 0 0 1-0.377097 10.612588c-6.787747 113.07524-39.056479 162.690436-79.028765 231.429839-7.380328 12.605815-15.784205 23.541629-15.784205 31.62228 0 4.363551 20.255498 17.13098 29.898408 22.410338 41.642287 22.625822 110.866529 63.567786 170.016893 145.343972 82.153283 113.61395 46.867775 205.948853 46.867775 205.948853s89.802966-0.861936 113.883305-2.478066a47.406485 47.406485 0 0 0 35.39325-17.508077c13.844848-17.400335 17.077109-46.005838 9.481297-92.658129zM197.922073 291.893039a5165.151983 5165.151983 0 0 0-33.453894 15.083881c-11.851621-70.032307-7.434199-115.714919-7.003231-119.054921 5.387101-105.58717 107.418784-143.458487 160.535596-148.737846L374.834455 37.40641S325.650227 164.865208 316.761511 269.374959c-14.006461 0.808065-81.237476 5.818069-118.785567 22.51808zM5.010003 839.545678c42.019384-131.82235 134.623642-181.545288 195.874976-214.514343 9.750652-5.225488 18.800981-10.073878 26.82776-14.922268a404.032539 404.032539 0 0 1 32.484216-16.538399c5.656456-2.69355 12.659686-5.979682 17.615819-8.727103-60.443268-89.802966-91.203612-175.296251-106.66459-243.766299l33.184539-14.006461c22.625822-11.420653 79.621346-20.147756 111.028142-22.302596 0.107742 3.555486 0.215484 7.110973 0.430968 10.612588 6.733876 113.07524 39.056479 162.690436 79.028764 231.429839 7.326457 12.605815 15.784205 23.541629 15.784205 31.62228 0 4.363551-20.309369 17.13098-29.952279 22.410338-41.642287 22.625822-110.866529 63.567786-169.963021 145.343972-82.153283 113.61395-46.867775 205.948853-46.867775 205.948853S73.96489 951.274143 49.938422 949.658013a47.406485 47.406485 0 0 1-35.447122-17.508077c-13.844848-17.400335-17.077109-46.005838-9.481297-92.658129zM405.109959 260.755598c54.571328-11.743879 199.37659-35.231637 364.92219-0.377097l0.377097 0.107742c1.346775 0.269355 22.625822 5.171617 48.106808 15.730333-0.53871-88.994901-22.733564-173.303024-62.651979-237.732746l-4.79452-7.757425-8.511619-3.124518a455.856446 455.856446 0 0 0-309.866022 0l-8.511619 3.124518-4.84839 7.757425C380.544781 101.18968 358.457669 182.858124 356.841539 269.267216l-0.053871 4.094197c21.279047-6.249037 44.174224-11.636137 47.891323-12.498073l0.484839-0.107742z m140.441711-134.138803h28.551633v-23.757114a19.016465 19.016465 0 1 1 38.086801 0v23.757114h22.140983a19.070336 19.070336 0 0 1 0 38.0868h-22.087112v15.838076c0 6.249037-3.23226 11.474524-7.919038 14.976139a15.51485 15.51485 0 0 1-12.605815 6.680005 15.622592 15.622592 0 0 1-15.299366-13.090654 18.639368 18.639368 0 0 1-2.316453-8.56549v-15.838076h-28.551633a19.070336 19.070336 0 0 1 0-38.0868z" p-id="14526"></path></svg>