<?xml version="1.0" standalone="no"?><!DOCTYPE svg PUBLIC "-//W3C//DTD SVG 1.1//EN" "http://www.w3.org/Graphics/SVG/1.1/DTD/svg11.dtd"><svg t="1532262699706" class="icon" style="" viewBox="0 0 1024 1024" version="1.1" xmlns="http://www.w3.org/2000/svg" p-id="1767" xmlns:xlink="http://www.w3.org/1999/xlink" width="128" height="128"><defs><style type="text/css"></style></defs><path d="M432.10752 12.1856l-170.31168 168.05888a41.45152 41.45152 0 0 0 0 59.04384l132.95616 131.19488V156.34432h115.54816V30.26944L491.9296 12.1856a42.8032 42.8032 0 0 0-59.82208 0zM30.65856 500.224h126.30016V385.8432H371.5072l-131.42016-131.60448a41.84064 41.84064 0 0 0-59.14624 0L12.57472 422.83008a42.04544 42.04544 0 0 0 0 59.24864l18.08384 18.14528zM238.67392 775.3728l131.33824-133.71392H156.20096V526.5408H30.18752l-18.04288 18.35008a43.04896 43.04896 0 0 0 0 59.94496l167.60832 170.55744c16.19968 16.44544 43.76576 9.05216 60.06784-7.20896l-1.14688 7.18848z m141.0048-123.98592l-133.48864 131.50208 7.20896-1.14688c-16.26112 16.2816-23.6544 43.88864-7.22944 60.12928l170.33216 167.81312a42.84416 42.84416 0 0 0 59.84256 0l18.35008-18.08384v-126.17728h-115.01568V651.38688z m394.67008 131.1744l-132.95616-131.1744v214.1184h-115.52768v126.07488l18.3296 18.10432a42.84416 42.84416 0 0 0 59.84256 0l170.2912-168.07936c16.50688-16.22016 8.56064-43.86816-7.72096-60.14976l7.74144 1.10592zM990.3104 526.5408h-125.91104v115.67104H650.5472l131.03104 133.16096-1.10592-7.74144c16.26112 16.2816 43.84768 24.22784 60.06784 7.74144l167.424-176.3328c16.30208-16.32256 16.62976-37.64224 0.36864-54.12864l-18.0224-18.37056zM648.8064 385.8432h214.77376v113.82784h126.58688l18.16576-18.1248a42.02496 42.02496 0 0 0 0-59.20768l-168.38656-168.61184a41.8816 41.8816 0 0 0-59.16672-0.02048L648.8064 385.8432z m-7.92576-15.36l133.48864-131.52256a41.3696 41.3696 0 0 0 0-58.9824L604.07808 12.16512a42.9056 42.9056 0 0 0-59.86304 0l-18.35008 18.04288v126.19776h115.01568V370.4832z" p-id="1768"></path></svg>