<?xml version="1.0" standalone="no"?><!DOCTYPE svg PUBLIC "-//W3C//DTD SVG 1.1//EN" "http://www.w3.org/Graphics/SVG/1.1/DTD/svg11.dtd"><svg t="1532263226907" class="icon" style="" viewBox="0 0 1024 1024" version="1.1" xmlns="http://www.w3.org/2000/svg" p-id="6761" xmlns:xlink="http://www.w3.org/1999/xlink" width="128" height="128"><defs><style type="text/css"></style></defs><path d="M287.87088 749.728l0 36.576q0 7.424-5.44 12.864t-12.864 5.44l-36.576 0q-7.424 0-12.864-5.44t-5.44-12.864l0-36.576q0-7.424 5.44-12.864t12.864-5.44l36.576 0q7.424 0 12.864 5.44t5.44 12.864zM287.87088 603.424l0 36.576q0 7.424-5.44 12.864t-12.864 5.44l-36.576 0q-7.424 0-12.864-5.44t-5.44-12.864l0-36.576q0-7.424 5.44-12.864t12.864-5.44l36.576 0q7.424 0 12.864 5.44t5.44 12.864zM434.17488 603.424l0 36.576q0 7.424-5.44 12.864t-12.864 5.44l-36.576 0q-7.424 0-12.864-5.44t-5.44-12.864l0-36.576q0-7.424 5.44-12.864t12.864-5.44l36.576 0q7.424 0 12.864 5.44t5.44 12.864zM287.87088 457.152l0 36.576q0 7.424-5.44 12.864t-12.864 5.44l-36.576 0q-7.424 0-12.864-5.44t-5.44-12.864l0-36.576q0-7.424 5.44-12.864t12.864-5.44l36.576 0q7.424 0 12.864 5.44t5.44 12.864zM726.71888 749.728l0 36.576q0 7.424-5.44 12.864t-12.864 5.44l-36.576 0q-7.424 0-12.864-5.44t-5.44-12.864l0-36.576q0-7.424 5.44-12.864t12.864-5.44l36.576 0q7.424 0 12.864 5.44t5.44 12.864zM580.44688 603.424l0 36.576q0 7.424-5.44 12.864t-12.864 5.44l-36.576 0q-7.424 0-12.864-5.44t-5.44-12.864l0-36.576q0-7.424 5.44-12.864t12.864-5.44l36.576 0q7.424 0 12.864 5.44t5.44 12.864zM434.17488 457.152l0 36.576q0 7.424-5.44 12.864t-12.864 5.44l-36.576 0q-7.424 0-12.864-5.44t-5.44-12.864l0-36.576q0-7.424 5.44-12.864t12.864-5.44l36.576 0q7.424 0 12.864 5.44t5.44 12.864zM726.71888 603.424l0 36.576q0 7.424-5.44 12.864t-12.864 5.44l-36.576 0q-7.424 0-12.864-5.44t-5.44-12.864l0-36.576q0-7.424 5.44-12.864t12.864-5.44l36.576 0q7.424 0 12.864 5.44t5.44 12.864zM580.44688 457.152l0 36.576q0 7.424-5.44 12.864t-12.864 5.44l-36.576 0q-7.424 0-12.864-5.44t-5.44-12.864l0-36.576q0-7.424 5.44-12.864t12.864-5.44l36.576 0q7.424 0 12.864 5.44t5.44 12.864zM726.71888 457.152l0 36.576q0 7.424-5.44 12.864t-12.864 5.44l-36.576 0q-7.424 0-12.864-5.44t-5.44-12.864l0-36.576q0-7.424 5.44-12.864t12.864-5.44l36.576 0q7.424 0 12.864 5.44t5.44 12.864zM580.44688 950.848l219.424 0 0-658.272-146.272 0 0 18.272q0 22.848-16 38.848t-38.848 16l-256 0q-22.848 0-38.848-16t-16-38.848l0-18.272-146.272 0 0 658.272 219.424 0 0-128q0-7.424 5.44-12.864t12.864-5.44l182.848 0q7.424 0 12.864 5.44t5.44 12.864l0 128zM580.44688 274.272l0-182.848q0-7.424-5.44-12.864t-12.864-5.44l-36.576 0q-7.424 0-12.864 5.44t-5.44 12.864l0 54.848-73.152 0 0-54.848q0-7.424-5.44-12.864t-12.864-5.44l-36.576 0q-7.424 0-12.864 5.44t-5.44 12.864l0 182.848q0 7.424 5.44 12.864t12.864 5.44l36.576 0q7.424 0 12.864-5.44t5.44-12.864l0-54.848 73.152 0 0 54.848q0 7.424 5.44 12.864t12.864 5.44l36.576 0q7.424 0 12.864-5.44t5.44-12.864zM873.02288 256l0 731.424q0 14.848-10.848 25.728t-25.728 10.848l-731.424 0q-14.848 0-25.728-10.848t-10.848-25.728l0-731.424q0-14.848 10.848-25.728t25.728-10.848l182.848 0 0-164.576q0-22.848 16-38.848t38.848-16l256 0q22.848 0 38.848 16t16 38.848l0 164.576 182.848 0q14.848 0 25.728 10.848t10.848 25.728z" p-id="6762"></path></svg>