<?xml version="1.0" standalone="no"?><!DOCTYPE svg PUBLIC "-//W3C//DTD SVG 1.1//EN" "http://www.w3.org/Graphics/SVG/1.1/DTD/svg11.dtd"><svg t="1532263264532" class="icon" style="" viewBox="0 0 1024 1024" version="1.1" xmlns="http://www.w3.org/2000/svg" p-id="7551" xmlns:xlink="http://www.w3.org/1999/xlink" width="128" height="128"><defs><style type="text/css"></style></defs><path d="M158.133909 0C70.939093 0 0 70.939093 0 158.133909S70.939093 316.267819 158.133909 316.267819 316.267819 245.328726 316.267819 158.133909 245.328726 0 158.133909 0zM158.133909 283.092873C89.231758 283.092873 33.174946 227.03606 33.174946 158.133909S89.231758 33.174946 158.133909 33.174946 283.092873 89.231758 283.092873 158.133909 227.03606 283.092873 158.133909 283.092873z" p-id="7552"></path><path d="M158.133909 353.866091C70.939093 353.866091 0 424.805184 0 512S70.939093 670.133909 158.133909 670.133909s158.133909-70.939093 158.133909-158.133909S245.328726 353.866091 158.133909 353.866091zM158.133909 636.958963C89.231758 636.958963 33.174946 580.902151 33.174946 512S89.231758 387.041037 158.133909 387.041037s124.958963 56.056812 124.958963 124.958963S227.03606 636.958963 158.133909 636.958963z" p-id="7553"></path><path d="M158.133909 707.732181C70.939093 707.732181 0 778.671274 0 865.866091S70.939093 1024 158.133909 1024s158.133909-70.939093 158.133909-158.133909S245.328726 707.732181 158.133909 707.732181zM158.133909 990.825054C89.231758 990.825054 33.174946 934.768242 33.174946 865.866091S89.231758 740.907127 158.133909 740.907127s124.958963 56.056812 124.958963 124.958963S227.03606 990.825054 158.133909 990.825054z" p-id="7554"></path><path d="M199.483162 111.018851l-59.042557 59.044769-23.655948-23.65816c-6.480173-6.477961-16.981149-6.477961-23.45911 0s-6.477961 16.981149 0 23.456898l35.386609 35.386609c3.237875 3.240086 7.484268 4.859024 11.728449 4.859024s8.490575-1.618937 11.730661-4.859024l70.773218-70.773218c6.477961-6.477961 6.477961-16.981149 0-23.456898-6.480173-6.477961-16.981149-6.477961-23.461322 0z" p-id="7555"></path><path d="M199.483162 464.884942l-59.042557 59.044769-23.655948-23.65816c-6.480173-6.477961-16.981149-6.477961-23.45911 0s-6.477961 16.981149 0 23.456898l35.386609 35.386609c3.237875 3.240086 7.484268 4.859024 11.728449 4.859024s8.490575-1.618937 11.730661-4.859024l70.773218-70.773218c6.477961-6.477961 6.477961-16.981149 0-23.456898-6.480173-6.477961-16.981149-6.477961-23.461322 0z" p-id="7556"></path><path d="M388.146868 121.641469l318.479482 0c9.16292 0 16.587473-7.426765 16.587473-16.587473s-7.424553-16.587473-16.587473-16.587473l-318.479482 0c-9.16292 0-16.587473 7.426765-16.587473 16.587473s7.424553 16.587473 16.587473 16.587473z" p-id="7557"></path><path d="M388.146868 227.801296l619.265659 0c9.16292 0 16.587473-7.426765 16.587473-16.587473s-7.424553-16.587473-16.587473-16.587473l-619.265659 0c-9.16292 0-16.587473 7.426765-16.587473 16.587473s7.424553 16.587473 16.587473 16.587473z" p-id="7558"></path><path d="M388.146868 475.507559l318.479482 0c9.16292 0 16.587473-7.426765 16.587473-16.587473s-7.424553-16.587473-16.587473-16.587473l-318.479482 0c-9.16292 0-16.587473 7.426765-16.587473 16.587473s7.424553 16.587473 16.587473 16.587473z" p-id="7559"></path><path d="M1007.412527 548.492441l-619.265659 0c-9.16292 0-16.587473 7.426765-16.587473 16.587473s7.424553 16.587473 16.587473 16.587473l619.265659 0c9.16292 0 16.587473-7.426765 16.587473-16.587473s-7.424553-16.587473-16.587473-16.587473z" p-id="7560"></path><path d="M388.146868 829.37365l318.479482 0c9.16292 0 16.587473-7.426765 16.587473-16.587473s-7.424553-16.587473-16.587473-16.587473l-318.479482 0c-9.16292 0-16.587473 7.426765-16.587473 16.587473s7.424553 16.587473 16.587473 16.587473z" p-id="7561"></path><path d="M1007.412527 902.358531l-619.265659 0c-9.16292 0-16.587473 7.426765-16.587473 16.587473s7.424553 16.587473 16.587473 16.587473l619.265659 0c9.16292 0 16.587473-7.426765 16.587473-16.587473s-7.424553-16.587473-16.587473-16.587473z" p-id="7562"></path></svg>