<?xml version="1.0" standalone="no"?><!DOCTYPE svg PUBLIC "-//W3C//DTD SVG 1.1//EN" "http://www.w3.org/Graphics/SVG/1.1/DTD/svg11.dtd"><svg t="1532263247940" class="icon" style="" viewBox="0 0 1024 1024" version="1.1" xmlns="http://www.w3.org/2000/svg" p-id="7428" xmlns:xlink="http://www.w3.org/1999/xlink" width="128" height="128"><defs><style type="text/css"></style></defs><path d="M639.197853 805.767541c13.699668 4.215815 27.73854 7.420942 41.985087 9.532311-20.912934 58.33608-76.258486 100.487308-141.634769 100.487308L151.077087 915.78716C67.764553 915.78716 0 848.008761 0 764.716995L0 289.915159c0-83.312534 67.764553-151.077087 151.077087-151.077087l116.277577 0C277.932276 65.853938 340.338798 9.345403 416.23039 9.345403l209.606998 0c83.291767 0 151.070165 67.764553 151.070165 151.077087L776.907553 263.33268c-14.163477-2.907459-28.583087-4.762694-43.161915-5.392643L733.745638 160.42249c0-59.478296-48.388418-107.90825-107.90825-107.90825L416.23039 52.514241c-52.098889 0-95.703846 37.118555-105.713811 86.330753l229.073126 0c72.880296 0 133.833089 51.891214 147.955031 120.59723-14.246547 1.73063-28.285419 4.852687-42.275833 8.770833-10.030732-49.129128-53.614921-86.206148-105.63074-86.206148L151.160158 182.006909c-59.478296 0-107.90825 48.436876-107.90825 107.915172l0 474.801836c0 59.436761 48.436876 107.915172 107.90825 107.915172l388.478005 0C584.489173 872.583709 623.013 844.886705 639.197853 805.767541zM851.816148 763.706307c-124.556911 71.911143-284.356375 29.081509-356.24675-95.433868C423.651332 543.798598 466.501734 383.978367 590.975575 312.101837c124.515376-71.869608 284.356375-29.109199 356.27444 95.433868C1019.161158 532.030313 976.248454 691.795164 851.816148 763.706307zM830.238651 726.359309c103.907033-59.942105 139.564936-193.311385 79.581296-297.239185-59.942105-103.948568-193.311385-139.696464-297.25303-79.692056-103.9278 60.004408-139.613393 193.311385-79.629753 297.25303S726.283161 786.342949 830.238651 726.359309zM917.323959 747.687594l-112.214057 64.753257 86.330753 149.471063 112.214057-64.753257L917.323959 747.687594zM1015.284547 917.476255l-112.172522 64.746334c17.873948 31.019814 57.498455 41.652806 88.435199 23.695788C1022.532426 988.044429 1033.241565 948.461456 1015.284547 917.476255zM416.742657 295.217809 129.451133 295.217809l0 32.376628 287.284601 0L416.735734 295.217809zM350.667198 439.13701 129.451133 439.13701l0 32.369706 221.216065 0L350.667198 439.13701zM129.451133 615.37746l221.216065 0 0-32.376628L129.451133 583.000832 129.451133 615.37746zM129.451133 759.234358l287.284601 0L416.735734 726.864653 129.451133 726.864653 129.451133 759.234358zM679.327704 582.793156l-67.023843-74.257877-32.037425 28.984593 94.803918 104.869263 185.212036-154.254524-27.648547-33.151951L679.327704 582.793156z" p-id="7429"></path></svg>