<?xml version="1.0" standalone="no"?><!DOCTYPE svg PUBLIC "-//W3C//DTD SVG 1.1//EN" "http://www.w3.org/Graphics/SVG/1.1/DTD/svg11.dtd"><svg t="1532264008352" class="icon" style="" viewBox="0 0 1024 1024" version="1.1" xmlns="http://www.w3.org/2000/svg" p-id="20502" xmlns:xlink="http://www.w3.org/1999/xlink" width="128" height="128"><defs><style type="text/css"></style></defs><path d="M843.181184 398.180122 910.141888 398.180122 910.100928 1024 139.279744 1024 139.320704 398.180122 329.09216 398.180122 719.919872 398.180122 843.181184 398.180122ZM376.832 592.313926 343.13152 650.089165 448.308672 711.141261 343.13152 771.753037 376.832 829.896915 481.732672 769.561632 481.732672 890.836378 549.143936 890.836378 549.143936 769.561632 654.321088 829.886675 688.021632 771.742797 582.84448 711.131021 688.021632 650.078918 654.321088 592.303686 549.420416 652.63897 549.420416 531.37447 481.732672 531.37447 481.732672 652.649216 376.832 592.313926ZM720.370432 398.108442 720.370432 317.763795C720.370432 210.262125 632.62208 122.810778 524.721088 122.810778 416.820032 122.810778 329.07168 210.262125 329.07168 317.763795L329.07168 398.108442 206.240448 398.108442 206.240448 317.763795C206.240448 142.543648 349.122048 0 524.710848 0 700.299584 0 843.181184 142.543648 843.181184 317.763795L843.181184 398.108442 720.370432 398.108442Z" p-id="20503"></path></svg>