<?xml version="1.0" standalone="no"?><!DOCTYPE svg PUBLIC "-//W3C//DTD SVG 1.1//EN" "http://www.w3.org/Graphics/SVG/1.1/DTD/svg11.dtd"><svg t="1532263918856" class="icon" style="" viewBox="0 0 1024 1024" version="1.1" xmlns="http://www.w3.org/2000/svg" p-id="18774" xmlns:xlink="http://www.w3.org/1999/xlink" width="128" height="128"><defs><style type="text/css"></style></defs><path d="M915.6032 106.8288l-1.9648-1.9776C818.2368 9.8112 663.28 9.6 568.1888 104.368L46.8064 623.968l4.272 2.5376C46.272 630.6016 44.8 636.4448 44.8 643.2672l0 312.0384c0 12.32 6.5312 20.6976 18.8928 20.6976l313.104 0c6.816 0 12.7136-2.4 16.7968-7.1872l1.136 1.52 521.376-519.4272C1011.2 356.1152 1010.9824 201.8656 915.6032 106.8288zM108.9888 624.5856c0.544-0.6144 1.1552-0.8256 1.7472-1.2512l392.7168-391.392 63.248 62.6944L218.1504 641.6704l-0.3936 0-122.0672-3.8656C100.2528 633.424 104.6656 629.216 108.9888 624.5856zM142.1408 931.4112c3.9328-22.2752 1.6704-32.016-10.5824-44.2208-11.8816-11.8592-19.6672-15.2224-42.032-11.9168l0-192.864 110.7648 3.9232 2.8288 106.1856-1.2864 24.368 1.4848 0.0576-0.048 1.6736 24.08-0.848 106.8352 2.9024 3.8624 110.736L142.1408 931.408zM336.1504 776.9504l-89.808-3.1136-3.2544-93.2864 355.2384-354.0512 94.896 94.5568L336.1504 776.9504zM394.6208 907.7952l0-0.0384c-0.1344 0.1504-0.3488 0.1728-0.5248 0.3264-0.4608 0.7104-0.7424 1.4592-1.4432 2.1728-3.4048 3.3248-6.8544 6.6304-10.3072 9.9328l-4.1056-117.712 0.1728-4.5952 346.4352-345.2864 63.2512 63.04L394.6208 907.7952zM819.7248 484.1152l-284.6496-283.7088 31.6256-31.52 284.6496 283.7056L819.7248 484.1152zM884.4608 419.5744l-1.4848 1.4816-284.6464-283.6896 1.4816-1.4784c77.7088-77.4528 204.3648-77.2608 282.2912 0.384l1.968 1.9808C961.9936 215.9328 962.192 342.144 884.4608 419.5744z" p-id="18775"></path></svg>