<?xml version="1.0" standalone="no"?><!DOCTYPE svg PUBLIC "-//W3C//DTD SVG 1.1//EN" "http://www.w3.org/Graphics/SVG/1.1/DTD/svg11.dtd"><svg t="1532263910726" class="icon" style="" viewBox="0 0 1024 1024" version="1.1" xmlns="http://www.w3.org/2000/svg" p-id="18655" xmlns:xlink="http://www.w3.org/1999/xlink" width="128" height="128"><defs><style type="text/css"></style></defs><path d="M926.9248 450.56a33.723733 33.723733 0 0 0-33.723733 33.723733v465.578667h-723.626667V791.893333h47.104a33.723733 33.723733 0 1 0 0-67.310933H42.052267a33.723733 33.723733 0 1 0 0 67.310933h59.665066v165.205334a60.2112 60.2112 0 0 0 60.074667 60.074666h738.645333a60.2112 60.2112 0 0 0 60.074667-60.074666V484.5568A33.723733 33.723733 0 0 0 926.9248 450.56zM42.052267 299.690667h174.216533a33.723733 33.723733 0 1 0 0-67.310934h-47.240533V74.1376h474.999466a33.723733 33.723733 0 0 0 0-67.310933H161.792a60.2112 60.2112 0 0 0-60.074667 60.074666V232.106667H42.052267a33.723733 33.723733 0 1 0 0 67.310933zM42.052267 464.213333h174.216533a33.723733 33.723733 0 0 0 0-67.310933H42.052267a33.723733 33.723733 0 0 0 0 67.310933zM42.052267 628.053333h174.216533a33.723733 33.723733 0 1 0 0-67.310933H42.052267a33.723733 33.723733 0 1 0 0 67.310933z" p-id="18656"></path><path d="M996.693333 122.88l-133.12-105.130667a49.698133 49.698133 0 0 0-42.052266-9.0112 58.436267 58.436267 0 0 0-32.494934 20.8896L367.0016 564.155733a32.494933 32.494933 0 0 0-8.055467 10.103467l-27.306666 34.816-32.494934 260.778667 245.76-92.023467 457.796267-579.310933a58.5728 58.5728 0 0 0 12.834133-36.590934A49.698133 49.698133 0 0 0 996.693333 122.88zM544.494933 669.013333L436.906667 584.4992l294.365866-373.009067 107.997867 85.333334zM395.946667 638.020267l106.496 83.968-122.88 45.8752z m485.102933-394.0352l-107.997867-85.333334 61.576534-78.097066L942.08 165.888z" p-id="18657"></path></svg>