<?xml version="1.0" standalone="no"?><!DOCTYPE svg PUBLIC "-//W3C//DTD SVG 1.1//EN" "http://www.w3.org/Graphics/SVG/1.1/DTD/svg11.dtd"><svg t="1532263561094" class="icon" style="" viewBox="0 0 1024 1024" version="1.1" xmlns="http://www.w3.org/2000/svg" p-id="10793" xmlns:xlink="http://www.w3.org/1999/xlink" width="128" height="128"><defs><style type="text/css"></style></defs><path d="M888 534.016l-367.008 368q-36 36-86.016 48.992 22.016-27.008 36-59.008 18.016-10.016 28.992-22.016l191.008-191.008-126.016-126.016 184-183.008q8-8 8-19.008t-8-19.008q-4.992-4.992-12-7.008t-14.016 0-12 7.008l-184 183.008-36-36 0-79.008 131.008-131.008q55.008-55.008 132.992-55.008t132.992 55.008q36 36 48.992 84.512t0 96.512-48.992 84zM491.008 628l0-76 36-36.992 38.016 38.016zM267.008 960.992q-78.016 0-132.992-55.488t-55.008-132.512l0-520q0-78.016 55.008-132.992t132.992-55.008q88 0 144 68 44 52 44 120l0 520q0 76.992-55.008 132.512t-132.992 55.488zM418.016 260.992q0-60.992-44.992-104.512t-106.496-43.488-107.008 43.488-45.504 104.512l0 270.016 72 0 0 260q0 11.008 8 18.496t19.008 7.488 19.008-7.488 8-18.496l0-260 178.016 0 0-270.016zM212.992 244q11.008 0 19.008 8t8 19.008l0 260-54.016 0 0-260q0-7.008 3.488-12.992t10.016-10.016 13.504-4z" p-id="10794"></path></svg>