<?xml version="1.0" standalone="no"?><!DOCTYPE svg PUBLIC "-//W3C//DTD SVG 1.1//EN" "http://www.w3.org/Graphics/SVG/1.1/DTD/svg11.dtd"><svg t="1532263504633" class="icon" style="" viewBox="0 0 1024 1024" version="1.1" xmlns="http://www.w3.org/2000/svg" p-id="9893" xmlns:xlink="http://www.w3.org/1999/xlink" width="128" height="128"><defs><style type="text/css"></style></defs><path d="M914.1248 673.0752c-9.984-9.984-26.2144-9.984-36.1984 0l-33.3312 33.3312-139.7248-135.9872c-0.1024-0.1024-0.1536-0.1536-0.256-0.2048-0.3584-0.3584-0.768-0.6656-1.1264-0.9728-0.3072-0.256-0.5632-0.4608-0.8704-0.7168s-0.6656-0.512-1.024-0.7168c-0.3584-0.256-0.7168-0.512-1.0752-0.7168-0.3072-0.1536-0.5632-0.3584-0.8704-0.512-0.4096-0.256-0.8704-0.512-1.3312-0.7168-0.3072-0.1536-0.5632-0.256-0.8704-0.4096-0.4608-0.2048-0.9216-0.4096-1.3824-0.6144-0.3584-0.1536-0.7168-0.256-1.0752-0.3584-0.4096-0.1536-0.8192-0.3072-1.2288-0.4096s-0.9216-0.2048-1.3824-0.3072c-0.3584-0.0512-0.6656-0.1536-1.024-0.2048-0.512-0.1024-1.024-0.1536-1.5872-0.2048-0.3072-0.0512-0.5632-0.1024-0.8704-0.1024-0.512-0.0512-1.024-0.0512-1.536-0.0512-0.3072 0-0.6144 0-0.9728 0-0.4608 0-0.9216 0.0512-1.3312 0.1024s-0.8192 0.0512-1.1776 0.1024c-0.3584 0.0512-0.768 0.1024-1.1264 0.1536-0.4608 0.1024-0.9728 0.1536-1.4336 0.256-0.1024 0.0512-0.2048 0.0512-0.3584 0.0512l-201.984 48.7936c-5.4272 1.3312-10.1888 0.6656-13.312-1.792s-4.864-6.912-4.864-12.4928l0-86.4256 179.2 0c14.1312 0 25.6-11.4688 25.6-25.6s-11.4688-25.6-25.6-25.6l-179.2 0 0-156.16c8.2944 1.6896 16.8448 2.56 25.6 2.56 70.5536 0 128-57.4464 128-128s-57.4464-128-128-128-128 57.4464-128 128c0 41.7792 20.1216 78.9504 51.2 102.3488l0 316.8768c0 21.2992 8.9088 40.5504 24.3712 52.736 11.1616 8.8064 25.088 13.4144 39.7824 13.4144 5.6832 0 11.4176-0.6656 17.2032-2.0992l188.2624-45.4656 147.712 143.7696c4.9664 4.8128 11.4176 7.2704 17.8688 7.2704 6.5536 0 13.1072-2.5088 18.1248-7.4752l51.2-51.2c9.984-9.984 9.984-26.2144 0-36.1984zM486.4 102.4c42.3424 0 76.8 34.4576 76.8 76.8s-34.4576 76.8-76.8 76.8c-42.3424 0-76.8-34.4576-76.8-76.8s34.4576-76.8 76.8-76.8z" p-id="9894"></path><path d="M384 1024c-183.5008 0-332.8-149.2992-332.8-332.8 0-79.2064 28.2624-155.904 79.6672-216.064 50.7904-59.4432 120.9856-99.2768 197.7344-112.1792 13.9264-2.3552 27.136 7.0656 29.4912 20.992s-7.0656 27.136-20.992 29.4912c-135.936 22.8352-234.6496 139.6224-234.6496 277.7088 0 155.2896 126.3104 281.6 281.6 281.6 138.0864 0 254.8736-98.6624 277.7088-234.6496 2.3552-13.9264 15.5648-23.3472 29.4912-20.992s23.3472 15.5136 20.992 29.4912c-12.8512 76.6976-52.6848 146.944-112.1792 197.7344-60.1088 51.3536-136.8576 79.6672-216.064 79.6672z" p-id="9895"></path></svg>