<?xml version="1.0" standalone="no"?><!DOCTYPE svg PUBLIC "-//W3C//DTD SVG 1.1//EN" "http://www.w3.org/Graphics/SVG/1.1/DTD/svg11.dtd"><svg t="1532263438725" class="icon" style="" viewBox="0 0 1024 1024" version="1.1" xmlns="http://www.w3.org/2000/svg" p-id="9187" xmlns:xlink="http://www.w3.org/1999/xlink" width="128" height="128"><defs><style type="text/css"></style></defs><path d="M962.623491 426.674807C949.255869 426.674807 937.191987 432.25444 928.633963 441.210777 923.442332 409.10835 914.679996 378.201675 902.762361 348.914026 919.562853 348.746344 934.253753 339.768844 942.429473 326.377615 956.006291 358.484926 966.126092 392.408793 972.331955 427.680899 969.198906 427.023194 965.95217 426.674807 962.623491 426.674807ZM863.808305 274.946442C851.450302 256.197257 837.658048 238.476685 822.584844 221.943453 837.712585 216.940125 849.435947 204.463008 853.378645 188.886215 872.369586 209.323074 889.564049 231.450319 904.724892 255.009374 903.9166 254.968131 903.103152 254.946968 902.284549 254.946968 886.373477 254.946968 872.31125 262.8519 863.808305 274.946442ZM962.623491 520.650005C968.543101 520.650005 974.205762 519.552746 979.422898 517.555756 975.357287 774.639178 765.647025 981.793781 507.533092 981.793781 246.878694 981.793781 35.575996 770.541007 35.575996 509.948201 35.575996 249.351869 246.878694 38.100723 507.533092 38.100723 547.953959 38.100723 587.1864 43.18545 624.629689 52.741969 615.601179 61.304878 609.969721 73.413528 609.969721 86.837859 609.969721 89.65101 610.217988 92.406096 610.692002 95.08304 577.279864 86.707078 542.312191 82.251565 506.302338 82.251565 270.012574 82.251565 78.46244 273.759644 78.46244 509.993514 78.46244 746.227383 270.012574 937.735462 506.302338 937.735462 742.244256 937.735462 933.572986 746.789037 934.135453 511.034336 942.039572 517.065463 951.912191 520.650005 962.623491 520.650005ZM761.958563 166.991228C738.866467 149.759593 713.977081 134.802247 687.620341 122.454826 697.629711 113.838465 703.967983 101.078622 703.967983 86.837859 703.967983 84.725011 703.826077 82.645537 703.555833 80.606491 734.925668 94.945204 764.448288 112.622092 791.675184 133.177522 776.820401 138.607924 765.475816 151.320827 761.958563 166.991228Z" p-id="9188"></path><path d="M726.035264 320.812905 726.035264 384.557312 679.869795 384.557312 679.869795 320.812905 620.661486 320.812905 620.661486 274.833026 679.869795 274.833026 679.869795 202.661647 726.035264 202.661647 726.035264 274.833026 798.266065 274.833026 798.266065 320.812905 726.035264 320.812905ZM664.367347 426.845745C664.066442 434.313022 661.91805 445.352089 654.747065 452.507337 647.765198 459.472382 635.673912 466.425488 635.673912 466.425488L524.15939 467.09296 533.309999 488.064339 635.855161 486.906302 735.749155 641.848844 789.289649 650.15236 789.664627 712.303245 671.083854 712.725164 592.108057 576.055623 442.231792 576.675883 388.357291 356.379676 478.058768 344.302228 496.930323 389.029918 638.99852 388.810141C638.99852 388.810141 665.617636 395.845732 664.367347 426.845745ZM632.26492 412.88825 476.530637 413.235553 459.204579 379.270444 427.195489 387.194913 469.178132 544.965528 605.894071 544.90258 691.473229 682.87532 763.654919 683.040288 763.736047 672.719432 711.069507 664.898612 618.66124 515.975258 508.987421 515.804591 486.545162 441.794137 631.558376 441.731188C631.558376 441.731188 641.680076 439.486202 641.765545 428.596095 641.864852 415.908426 632.26492 412.88825 632.26492 412.88825ZM416.339841 336.62874C372.754722 336.62874 337.421024 301.307523 337.421024 257.72973 337.421024 214.156006 372.754722 178.82882 416.339841 178.82882 459.926046 178.82882 495.259472 214.156006 495.259472 257.72973 495.259472 301.307523 459.926046 336.62874 416.339841 336.62874ZM416.036494 205.840822C387.437753 205.840822 364.254762 229.020286 364.254762 257.610073 364.254762 286.20393 387.437753 309.383122 416.036494 309.383122 444.635506 309.383122 467.818497 286.20393 467.818497 257.610073 467.818497 229.020286 444.635506 205.840822 416.036494 205.840822ZM259.060875 386.983004 259.060875 353.212167 367.901711 353.166855 390.744996 433.057034C336.041039 459.107443 310.836095 503.161963 301.093715 528.209535 294.178052 545.984102 292.697403 575.24326 299.585933 609.457721 302.656305 624.706476 315.076986 639.929725 325.78693 658.620574 348.498077 698.265437 386.238745 716.981791 434.691527 724.888895 460.330599 729.070906 478.716473 727.775847 497.404337 723.15211 521.595048 717.168195 541.59805 703.717274 558.507074 688.790317 584.552869 665.79373 594.732905 637.570781 594.732905 637.570781L620.696759 667.422525C620.696759 667.422525 589.926834 737.464776 500.798406 757.47239 368.682328 787.13583 286.423436 697.099532 266.507803 621.797817 248.262207 552.805613 265.304454 510.601836 288.687958 473.314018 312.070376 436.020502 352.325189 412.479898 352.325189 412.479898L343.417149 386.983004 259.060875 386.983004Z" p-id="9189"></path></svg>