<?xml version="1.0" standalone="no"?><!DOCTYPE svg PUBLIC "-//W3C//DTD SVG 1.1//EN" "http://www.w3.org/Graphics/SVG/1.1/DTD/svg11.dtd"><svg t="1532263667880" class="icon" style="" viewBox="0 0 1057 1024" version="1.1" xmlns="http://www.w3.org/2000/svg" p-id="13067" xmlns:xlink="http://www.w3.org/1999/xlink" width="132.125" height="128"><defs><style type="text/css"></style></defs><path d="M420.401548 355.889548c-63.339355-36.302452-126.612645-72.654452-189.902451-108.956903 33.808516-65.998452 75.04929-132.162065 142.435097-198.276129 8.324129-8.885677 19.257806-14.715871 32.751483-17.424516h14.319484l10.107871 0.445935c33.246968 5.549419 65.436903 49.465806 82.151226 74.273033a1667.963871 1667.963871 0 0 1 37.805419 68.228129l-129.668129 181.710451z m108.081549-260.129032c30.42271 52.240516 59.061677 106.347355 83.934968 164.13729l-100.632775 57.889033 291.856516 27.978322 122.846968-266.718967-101.574193 58.45058c-27.648-56.171355-62.893419-102.912-116.290065-126.843871C612.748387 11.115355 516.872258 11.56129 420.963097 12.056774c37.970581-1.436903 73.315097 32.916645 107.52 83.703742z m223.033806 380.515097l1.172645-1.602065 0.049549 3.996904 74.933677 159.595354c30.307097 1.106581 60.663742 1.271742 90.970839 0.891871 31.479742-2.609548 89.864258-9.777548 108.081548-39.803871 0.660645-0.990968 1.172645-2.048 1.783742-3.055483l7.38271-13.328517c0-5.945806-0.825806-11.941161-2.609548-17.655741-24.592516-91.086452-62.001548-159.364129-102.961549-221.250065-62.728258 37.409032-125.390452 74.718968-188.069161 112.177548l9.265548 20.034065z m167.969032 181.908645c-60.449032 0.990968-121.55871-0.660645-184.121806-7.267097l-1.222194-116.124903-167.308387 240.673032 172.296258 237.848775-1.172645-117.181936c62.447484 3.501419 120.402581-4.442839 167.572645-39.12671 46.575484-83.819355 93.150968-167.63871 139.776-251.392-17.474065 33.758968-64.825806 47.632516-125.819871 52.570839z m-610.716903 16.697807a1748.215742 1748.215742 0 0 0-37.409032 76.88258c-11.330065 29.580387-30.026323 85.322323-10.768516 114.688 0.660645 0.990968 1.337806 1.948903 2.048 2.939871l9.100387 12.717419c7.663484 5.433806 15.938065 8.555355 24.642064 9.777549 92.870194 17.259355 170.578581 12.766968 244.075355 2.493935-6.722065-72.654452-13.427613-145.374968-20.199225-218.045935l-211.489033-1.453419z m-54.998709 69.400774c25.203613-54.850065 52.95071-109.402839 85.817806-163.080258l105.356387 49.019871-145.094193-254.777807L11.032774 428.428387 117.264516 477.778581c-30.092387 55.064774-47.896774 110.691097-36.864 168.134193 55.51071 78.269935 111.021419 156.424258 166.631226 234.529032-22.957419-30.257548-15.128774-78.930581 6.738581-136.158967z" p-id="13068"></path></svg>