<?xml version="1.0" standalone="no"?><!DOCTYPE svg PUBLIC "-//W3C//DTD SVG 1.1//EN" "http://www.w3.org/Graphics/SVG/1.1/DTD/svg11.dtd"><svg t="1532263607760" class="icon" style="" viewBox="0 0 1024 1024" version="1.1" xmlns="http://www.w3.org/2000/svg" p-id="11694" xmlns:xlink="http://www.w3.org/1999/xlink" width="128" height="128"><defs><style type="text/css"></style></defs><path d="M890.488 37.707c-3.614-23.115-27.301-39.198-53.895-35.102l-312.23 48.881a34.214 34.214 0 0 0-0.376-4.427l-2.952-18.718A33.822 33.822 0 0 0 482.741 0.39a33.31 33.31 0 0 0-21.896 13.388 33.28 33.28 0 0 0-6.053 24.922l2.92 18.748c0.242 1.461 0.573 2.907 0.98 4.307l-312.215 48.866a50.613 50.613 0 0 0-30.735 16.806c-8.086 9.442-11.686 21.504-9.863 33.069 3.237 20.706 22.467 35.75 45.703 35.75a54.5 54.5 0 0 0 8.192-0.633l14.336-1.792c0 0.136 2.831 0.256 2.831 0.392v654.471c0 94.63 56.651 171.55 146.116 171.55h341.429c95.533 0 175.043-84.435 175.043-171.55V194.23c0-8.042-5.3-2.229-13.357-2.229h-564.51L849.89 93.756c26.037-4.08 44.258-32.617 40.598-56.049z m-276.84 302.08c0-12.047 10.54-21.835 22.587-21.835s22.589 9.788 22.589 21.835v509.5c0 12.048-10.542 21.836-22.589 21.836s-22.588-9.788-22.588-21.835v-509.5z m-240.942 0c0-12.047 10.541-21.835 22.588-21.835s22.588 9.788 22.588 21.835v509.5c0 12.048-10.54 21.836-22.588 21.836s-22.588-9.788-22.588-21.835v-509.5z" p-id="11695"></path></svg>