<?xml version="1.0" standalone="no"?><!DOCTYPE svg PUBLIC "-//W3C//DTD SVG 1.1//EN" "http://www.w3.org/Graphics/SVG/1.1/DTD/svg11.dtd"><svg t="1532264163582" class="icon" style="" viewBox="0 0 1024 1024" version="1.1" xmlns="http://www.w3.org/2000/svg" p-id="24584" xmlns:xlink="http://www.w3.org/1999/xlink" width="128" height="128"><defs><style type="text/css"></style></defs><path d="M775.715 712.349l-63.366 63.366c-8.387 8.387-20.035 13.046-31.683 13.046-11.648 0-23.297-4.659-31.684-13.046L512 638.732 375.018 775.715c-8.387 8.387-20.035 13.046-31.683 13.046-11.648 0-23.297-4.659-31.684-13.046l-63.366-63.366c-8.387-8.387-13.046-20.035-13.046-31.683 0-11.648 4.659-23.297 13.046-31.684L385.268 512 248.285 375.018c-8.387-8.387-13.046-20.035-13.046-31.683 0-11.648 4.659-23.297 13.046-31.684l63.366-63.366c8.387-8.387 20.035-13.046 31.684-13.046 11.647 0 23.296 4.659 31.683 13.046L512 385.268l136.982-136.982c8.387-8.387 20.035-13.046 31.684-13.046 11.647 0 23.296 4.659 31.683 13.046l63.366 63.366c8.387 8.387 13.046 20.035 13.046 31.684 0 11.647-4.659 23.296-13.046 31.683L638.732 512l136.982 136.982c8.387 8.387 13.046 20.035 13.046 31.684C788.761 692.313 784.102 703.962 775.715 712.349z" p-id="24585"></path></svg>