<?xml version="1.0" standalone="no"?><!DOCTYPE svg PUBLIC "-//W3C//DTD SVG 1.1//EN" "http://www.w3.org/Graphics/SVG/1.1/DTD/svg11.dtd"><svg t="1532264158477" class="icon" style="" viewBox="0 0 1024 1024" version="1.1" xmlns="http://www.w3.org/2000/svg" p-id="24461" xmlns:xlink="http://www.w3.org/1999/xlink" width="128" height="128"><defs><style type="text/css"></style></defs><path d="M569.886385 512l377.267413-377.266389c15.985066-15.985066 15.985066-41.901319 0-57.886385-15.985066-15.986089-41.901319-15.984043-57.886385 0L512 454.112592 134.732587 76.846202c-15.985066-15.985066-41.901319-15.985066-57.886385 0s-15.985066 41.901319 0 57.886385l377.267413 377.266389L76.846202 889.266389c-15.985066 15.985066-15.985066 41.901319 0 57.886385 7.993045 7.993045 18.467607 11.989055 28.943193 11.989055s20.951171-3.996011 28.943193-11.989055l377.267413-377.266389L889.267413 947.152774c7.993045 7.993045 18.467607 11.989055 28.943193 11.989055 10.474562 0 20.951171-3.996011 28.943193-11.989055 15.985066-15.985066 15.985066-41.901319 0-57.886385L569.886385 512z" p-id="24462"></path></svg>