<?xml version="1.0" standalone="no"?><!DOCTYPE svg PUBLIC "-//W3C//DTD SVG 1.1//EN" "http://www.w3.org/Graphics/SVG/1.1/DTD/svg11.dtd"><svg t="1532263808194" class="icon" style="" viewBox="0 0 1024 1024" version="1.1" xmlns="http://www.w3.org/2000/svg" p-id="17082" xmlns:xlink="http://www.w3.org/1999/xlink" width="128" height="128"><defs><style type="text/css"></style></defs><path d="M219.721143 769.170286c0-20.699429 16.749714-37.302857 37.449143-37.302857 18.578286 0 35.108571 16.603429 35.108571 37.302857 0 18.724571-16.603429 35.254857-35.108571 35.254857C236.397714 804.425143 219.721143 787.821714 219.721143 769.170286L219.721143 769.170286zM141.019429 883.273143c78.701714 76.726857 155.428571 51.712 207.286857 0l265.435429-265.435429c0 0 142.994286 49.737143 226.011429-18.724571l51.858286-53.906286 41.398857-39.350857c51.858286-51.785143 62.171429-95.378286 49.737143-165.888l-20.699429-72.557714-14.409143-56.027429c-2.121143-8.265143-4.169143-16.603429-8.265143-22.820571l-176.274286 176.201143L663.405714 360.740571l-4.169143-99.474286 178.322286-176.274286c-8.265143-4.169143-16.603429-6.217143-24.868571-8.265143L756.736 62.171429 684.178286 41.472c-70.436571-12.434286-114.029714-2.048-165.888 51.785143L479.012571 132.681143 427.154286 184.539429c-70.582857 84.992-20.699429 226.011429-20.699429 226.011429L142.994286 675.84C91.209143 727.698286 64.292571 804.425143 141.019429 883.273143L141.019429 883.273143z" p-id="17083"></path></svg>