<?xml version="1.0" standalone="no"?><!DOCTYPE svg PUBLIC "-//W3C//DTD SVG 1.1//EN" "http://www.w3.org/Graphics/SVG/1.1/DTD/svg11.dtd"><svg t="1532263816247" class="icon" style="" viewBox="0 0 1024 1024" version="1.1" xmlns="http://www.w3.org/2000/svg" p-id="17200" xmlns:xlink="http://www.w3.org/1999/xlink" width="128" height="128"><defs><style type="text/css"></style></defs><path d="M937.06199 621.688013 1024 621.688013 1024 402.25l-86.938 0c-88.188006 0-109.187994-50.937958-46.999962-113.188045l61.561958-61.561958-155.188019-155.125965-61.500006 61.500006c-62.312038 62.312038-113.312051 41.188045-113.12599-46.875955 0-0.249958-0.125952-0.376013-0.125952-0.561971L621.684029 0 402.344 0l0 87.25c-0.249958 87.875994-51.061965 108.875981-113.282048 46.625997l-61.531955-61.500006L72.406016 227.500032l61.500006 61.561958c62.282035 62.249984 41.155994 113.188045-46.875955 113.188045L0 402.250035l0 219.438 87.032 0c88.032051 0 109.156045 50.937958 46.875955 113.249997l-61.500006 61.500006 155.125965 155.188019 61.531955-61.561958c62.218035-62.188032 113.031987-41.188045 113.282048 46.625997L402.347917 1024l219.344 0 0-86.438c0-0.188006 0.125952-0.376013 0.125952-0.561971-0.188006-88.061952 50.812006-109.126042 113.12599-46.93801l61.500006 61.561958 155.188019-155.188019-61.561958-61.500006C827.876045 672.625971 848.876032 621.688013 937.06199 621.688013zM512 704c-106.032026 0-192-86.000026-192-192s85.967974-192 192-192c105.999974 0 192 86.000026 192 192S617.999974 704 512 704z" p-id="17201"></path></svg>