<?xml version="1.0" standalone="no"?><!DOCTYPE svg PUBLIC "-//W3C//DTD SVG 1.1//EN" "http://www.w3.org/Graphics/SVG/1.1/DTD/svg11.dtd"><svg t="1532262934355" class="icon" style="" viewBox="0 0 1024 1024" version="1.1" xmlns="http://www.w3.org/2000/svg" p-id="2691" xmlns:xlink="http://www.w3.org/1999/xlink" width="128" height="128"><defs><style type="text/css"></style></defs><path d="M803.3792 5.12h-454.144 454.144zM826.3168 5.12h-22.9376a74.24 74.24 0 0 1 32.4608 9.0112c-2.8672-5.632-6.0928-9.0112-9.5232-9.0112" p-id="2692"></path><path d="M965.9904 907.264c0 70.2976-5.5296 82.7904-74.4448 82.7904H268.6464c-72.3968 0-72.3968-12.6464-72.3968-82.7904V197.12h61.44V870.4a38.7584 38.7584 0 0 0 39.2192 38.2976h569.1904a38.7584 38.7584 0 0 0 39.2192-38.2976V179.2a38.7584 38.7584 0 0 0-39.2192-38.2976h-192.2048c14.6432-44.3392 51.456-106.8032 142.5408-106.8032h5.12A145.4592 145.4592 0 0 1 965.9904 179.2zM666.5216 169.6256h199.68a10.24 10.24 0 0 1 10.24 9.472V870.4a10.24 10.24 0 0 1-10.24 9.472H296.6528a10.24 10.24 0 0 1-10.24-9.472V197.12H650.24a14.4384 14.4384 0 0 0 14.3872-13.2608c0-1.0752 0.5632-6.3488 2.048-14.2336z m-498.688-1.3312H55.808C77.6704 40.6528 174.08 33.9456 193.9968 33.9456h522.24c-42.0352 29.0304-62.464 74.0864-72.192 106.8032a254.6176 254.6176 0 0 0-6.5536 27.4944H167.7824zM842.7008 6.5536a175.104 175.104 0 0 0-20.8896-1.4336H193.9968c-15.36 0-149.76 5.12-168.96 175.9232a14.4384 14.4384 0 0 0 14.336 16.0256h128V907.264c0 75.3664 4.3008 111.616 101.2224 111.616h622.9504c93.0816 0 103.2704-35.84 103.2704-111.616V179.2a174.336 174.336 0 0 0-152.1152-172.6464z" p-id="2693"></path><path d="M795.8016 382.464a24.5248 24.5248 0 0 1-24.5248 24.5248h-378.88a24.5248 24.5248 0 0 1 0-49.0496h379.2896a24.5248 24.5248 0 0 1 24.5248 24.5248M795.8016 541.184a24.5248 24.5248 0 0 1-24.5248 24.5248h-378.88a24.5248 24.5248 0 0 1 0-49.0496h379.2896a24.5248 24.5248 0 0 1 24.5248 24.5248M591.0016 699.904a24.5248 24.5248 0 0 1-24.5248 24.5248h-174.08a24.5248 24.5248 0 0 1 0-49.0496h174.4896a24.5248 24.5248 0 0 1 24.5248 24.5248" p-id="2694"></path></svg>