<?xml version="1.0" standalone="no"?><!DOCTYPE svg PUBLIC "-//W3C//DTD SVG 1.1//EN" "http://www.w3.org/Graphics/SVG/1.1/DTD/svg11.dtd"><svg t="1532263168259" class="icon" style="" viewBox="0 0 1024 1024" version="1.1" xmlns="http://www.w3.org/2000/svg" p-id="5249" xmlns:xlink="http://www.w3.org/1999/xlink" width="128" height="128"><defs><style type="text/css"></style></defs><path d="M773.69 663.5a27.76 27.76 0 0 0-12.13-37.35 528.83 528.83 0 0 0-104.74-39.63c95.62-51.69 160.73-152.85 160.73-269C817.56 149.07 680.48 12 512 12S206.45 149.07 206.45 317.56c0 115.66 64.61 216.49 159.61 268.37C173.75 635.91 35.25 784.45 12.19 981a27.78 27.78 0 0 0 24.36 30.82 26.2 26.2 0 0 0 3.26 0.19 27.78 27.78 0 0 0 27.56-24.55C92.54 772.93 275.4 623.11 512 623.11c79.37 0 157 18.17 224.34 52.52a27.8 27.8 0 0 0 37.35-12.13zM262 317.56c0-137.86 112.14-250 250-250s250 112.14 250 250-112.14 250-250 250-250-112.15-250-250zM623.11 762a27.76 27.76 0 0 0 27.78 27.78h333.33a27.78 27.78 0 1 0 0-55.56H650.89A27.76 27.76 0 0 0 623.11 762zM984.22 845.33H650.89a27.78 27.78 0 0 0 0 55.56h333.33a27.78 27.78 0 1 0 0-55.56zM984.22 956.44H650.89a27.78 27.78 0 0 0 0 55.56h333.33a27.78 27.78 0 1 0 0-55.56z" p-id="5250"></path></svg>