<?xml version="1.0" standalone="no"?><!DOCTYPE svg PUBLIC "-//W3C//DTD SVG 1.1//EN" "http://www.w3.org/Graphics/SVG/1.1/DTD/svg11.dtd"><svg t="1532264061655" class="icon" style="" viewBox="0 0 1078 1024" version="1.1" xmlns="http://www.w3.org/2000/svg" p-id="21538" xmlns:xlink="http://www.w3.org/1999/xlink" width="134.75" height="128"><defs><style type="text/css"></style></defs><path d="M1041.964912 883.873684c-82.638596-66.470175-267.677193-134.736842-283.845614-141.922807-10.778947-5.389474-30.540351-8.982456-48.505263 1.796491-19.761404-8.982456-37.726316-28.74386-37.726316-73.65614l0-44.912281c0-16.168421 8.982456-28.74386 21.557895-44.912281 16.168421-21.557895 34.133333-46.708772 41.319298-89.824561 3.592982 0 7.185965-1.796491 8.982456-3.592982 26.947368-19.761404 35.929825-80.842105 37.726316-98.807018 1.796491-7.185965 5.389474-35.929825-7.185965-53.894737-1.796491-1.796491-3.592982-5.389474-5.389474-7.185965 12.575439-123.957895-3.592982-206.596491-52.098246-260.491228-39.522807-44.912281-98.807018-66.470175-177.852632-66.470175-79.045614 0-140.126316 21.557895-177.852632 66.470175-48.505263 53.894737-64.673684 136.533333-52.098246 260.491228-1.796491 1.796491-3.592982 3.592982-7.185965 7.185965-12.575439 17.964912-8.982456 46.708772-7.185965 53.894737 1.796491 19.761404 8.982456 80.842105 37.726316 98.807018 3.592982 1.796491 5.389474 3.592982 8.982456 3.592982 5.389474 43.115789 25.150877 68.266667 39.522807 89.824561 12.575439 17.964912 21.557895 28.74386 21.557895 46.708772l0 44.912281c0 48.505263-26.947368 66.470175-43.115789 73.65614-23.354386-14.37193-43.115789-5.389474-43.115789-5.389474-8.982456 3.592982-204.8 73.65614-283.845614 150.905263-26.947368 26.947368-35.929825 55.691228-25.150877 82.638596 10.778947 28.74386 43.115789 46.708772 80.842105 46.708772l898.245614 0c37.726316 0 71.859649-21.557895 82.638596-53.894737C1077.894737 934.175439 1067.115789 903.635088 1041.964912 883.873684zM434.750877 670.091228l0-44.912281c0-28.74386-14.37193-48.505263-26.947368-66.470175-16.168421-21.557895-32.336842-44.912281-34.133333-86.231579l-1.796491-23.354386-21.557895 7.185965c-8.982456-3.592982-19.761404-39.522807-21.557895-73.65614l0-1.796491c-1.796491-10.778947-1.796491-23.354386 0-26.947368l17.964912-1.796491-1.796491-17.964912c-14.37193-118.568421 0-197.614035 41.319298-244.322807 32.336842-35.929825 82.638596-53.894737 150.905263-53.894737s118.568421 17.964912 150.905263 53.894737c41.319298 46.708772 55.691228 127.550877 41.319298 244.322807l-3.592982 17.964912 17.964912 1.796491c1.796491 3.592982 3.592982 16.168421 1.796491 26.947368l0 1.796491c-3.592982 34.133333-14.37193 70.063158-21.557895 73.65614l-21.557895-7.185965-1.796491 23.354386c-3.592982 41.319298-19.761404 64.673684-35.929825 86.231579-14.37193 17.964912-28.74386 39.522807-28.74386 66.470175l0 44.912281c0 52.098246 19.761404 88.02807 61.080702 105.992982l-89.824561 89.824561c-39.522807 39.522807-104.196491 39.522807-143.719298 0l-91.621053-91.621053C393.431579 767.101754 434.750877 740.154386 434.750877 670.091228zM325.164912 772.491228c0 0 1.796491 0 1.796491 0 1.796491 0 7.185965 0 14.37193 5.389474l7.185965 5.389474 1.796491 0 97.010526 97.010526c23.354386 23.354386 53.894737 34.133333 84.435088 34.133333 30.540351 0 61.080702-10.778947 84.435088-34.133333l95.214035-95.214035 3.592982 1.796491 8.982456-8.982456c7.185965-7.185965 16.168421-3.592982 17.964912-1.796491l1.796491 1.796491c0 0 3.592982 1.796491 10.778947 3.592982l-118.568421 118.568421c-57.487719 55.691228-149.108772 55.691228-206.596491 0l-120.364912-120.364912C319.775439 774.287719 325.164912 772.491228 325.164912 772.491228zM1032.982456 950.34386c-5.389474 14.37193-23.354386 30.540351-50.301754 30.540351l-898.245614 0c-23.354386 0-43.115789-8.982456-48.505263-23.354386-5.389474-12.575439 1.796491-26.947368 17.964912-43.115789 53.894737-52.098246 177.852632-105.992982 237.136842-129.347368l125.754386 125.754386c32.336842 32.336842 73.65614 48.505263 114.975439 48.505263 41.319298 0 84.435088-16.168421 114.975439-48.505263l125.754386-123.957895c57.487719 21.557895 183.242105 75.452632 244.322807 123.957895C1032.982456 923.396491 1038.37193 937.768421 1032.982456 950.34386z" p-id="21539"></path></svg>